<?xml version="1.0" encoding="UTF-8"?>
<!DOCTYPE svg PUBLIC "-//W3C//DTD SVG 1.1//EN" "http://www.w3.org/Graphics/SVG/1.1/DTD/svg11.dtd">
<!-- Creator: CorelDRAW X8 -->
<svg xmlns="http://www.w3.org/2000/svg" xml:space="preserve" width="310.732mm" height="117.522mm" version="1.1" style="shape-rendering:geometricPrecision; text-rendering:geometricPrecision; image-rendering:optimizeQuality; fill-rule:evenodd; clip-rule:evenodd"
viewBox="0 0 134163 50742"
 xmlns:xlink="http://www.w3.org/1999/xlink">
 <defs>
  <style type="text/css">
   <![CDATA[
    .str0 {stroke:#FEFEFE;stroke-width:32.9005}
    .fil5 {fill:none;fill-rule:nonzero}
    .fil6 {fill:#FEFEFE}
    .fil0 {fill:#513625}
    .fil1 {fill:#AD9289}
    .fil3 {fill:#E56D51}
    .fil2 {fill:white}
    .fil4 {fill:#FEFEFE;fill-rule:nonzero}
   ]]>
  </style>
 </defs>
 <g id="Capa_x0020_1">
  <metadata id="CorelCorpID_0Corel-Layer"/>
  <path class="fil0" d="M40 11327l-40 28235c10095,58 20211,-67 30306,-67 2500,0 4984,31 7481,-70 3284,-132 10570,-1046 11776,2961 268,891 266,2644 232,3629 -54,1604 -357,1951 -850,3040l85188 -10 30 -47255 -39395 -30c340,988 719,1245 885,2562 332,2639 -613,5945 -3154,6805 -1144,388 -11002,168 -13070,168 -26437,2 -52974,-95 -79389,32z"/>
  <path class="fil1" d="M0 39562l41 1512 32632 27c-118,403 -380,644 -566,1136 -1134,2990 -80,7592 3075,8360 1032,252 12059,96 14088,104 9437,33 18890,-31 28331,-29 9405,1 18811,-38 28216,-38 9403,0 18853,87 28250,-17l66 -1572 -85188 10c493,-1089 796,-1436 850,-3040 34,-985 36,-2738 -232,-3629 -1206,-4007 -8492,-3093 -11776,-2961 -2497,101 -4981,70 -7481,70 -10095,0 -20211,125 -30306,67z"/>
  <path class="fil1" d="M40 11327c26415,-127 52952,-30 79389,-32 2068,0 11926,220 13070,-168 2541,-860 3486,-4166 3154,-6805 -166,-1317 -545,-1574 -885,-2562l39395 30 -25 -1701c-16601,-213 -33775,24 -50483,21 -2219,-1 -4415,-177 -5610,2821 -663,1663 -860,3616 -249,5402 245,717 470,906 737,1476l-78509 -11 16 1529z"/>
  <path class="fil2" d="M65368 31351c-1,5206 298,9216 -4044,10842 -2720,1018 -6138,-105 -7552,-2857 -633,-1233 -438,-1706 -776,-2984l-1036 10c-380,3433 2518,6190 5007,6972 3800,1194 7154,-955 8428,-3128 1554,-2649 1099,-7576 1099,-10984 -1,-4555 -614,-6629 -3427,-8656 -5857,-4220 -14337,1259 -12421,8539 752,2859 3154,5347 6234,5874 5635,963 8169,-3421 8488,-3628z"/>
  <path class="fil2" d="M125361 31377l-9 3415 1148 19c73,-2502 119,-5707 -45,-8147 -333,-4959 -4388,-7970 -8974,-7478 -2533,272 -4227,1638 -5351,2985 -4523,5421 388,14630 8358,12698 3352,-813 4218,-3033 4873,-3492z"/>
  <path class="fil0" d="M57441 20305c-3504,528 -6463,3754 -5817,7919 533,3436 3852,6326 7943,5712 3362,-505 6343,-3826 5710,-7899 -526,-3392 -3765,-6345 -7836,-5732z"/>
  <path class="fil0" d="M117712 20264c-3551,384 -6526,3597 -6074,7707 383,3485 3683,6501 7692,5992 3579,-453 6388,-3569 5961,-7688 -358,-3453 -3602,-6442 -7579,-6011z"/>
  <path class="fil2" d="M101740 28861c-1372,9 -1079,-24 -1258,386 -638,1463 -870,2168 -2311,3295 -2797,2188 -6481,1935 -9147,-579 -890,-841 -2084,-2598 -1967,-4444 1169,12 13786,101 14410,-26 1485,-303 -189,-6690 -5472,-8112 -2907,-782 -5853,276 -7472,1802 -4251,4006 -3134,10107 1142,12771 3299,2055 7979,1290 10460,-1743 590,-720 1455,-2141 1615,-3350z"/>
  <path class="fil3" d="M34762 49108c2368,92 8662,225 10747,91 771,-49 1268,-452 1740,-859 560,-483 442,-153 734,-982 203,-577 332,-3960 -116,-4623 -426,-631 -362,1 -587,-1052 -1575,-180 335,-586 -3951,-586 -1784,0 -6632,-222 -8339,249 -1383,382 -1184,491 -1467,1228 -120,313 -167,461 -193,813 -72,992 -157,2733 -84,3645 75,925 1231,1979 1516,2076z"/>
  <path class="fil3" d="M79140 5460c0,4350 628,1928 1161,3924 1528,138 -65,311 3126,308 1180,-2 2361,-4 3541,-4 1182,0 2362,-7 3543,9 2206,30 1563,-571 2796,-770 131,-763 935,-867 595,-4833 -84,-975 -424,-1284 -978,-1740 -1104,-908 -1418,-702 -3214,-702 -2361,-1 -4722,1 -7083,2 -1044,0 -1852,-58 -2756,825 -701,686 -731,1687 -731,2981z"/>
  <path class="fil2" d="M6542 34825l1124 -13c95,-2983 19,-6131 9,-9131 -4,-1519 -40,-2751 706,-3880 524,-793 1586,-1593 2963,-1579 3290,34 3653,3080 3671,5458 23,2997 -113,6155 13,9126l1112 5c4,-3009 -4,-6013 1,-9016 3,-1455 52,-2758 689,-3885 469,-827 1565,-1675 2966,-1686 3352,-29 3674,3152 3709,5457 43,2895 -189,6276 19,9091l1081 46c150,-2068 21,-4625 21,-6738 0,-1830 210,-4769 -496,-6272 -638,-1359 -2091,-2596 -4101,-2674 -1725,-67 -3092,772 -4040,1942 -78,95 -134,172 -204,253 -145,166 -84,112 -215,221 -1089,-1413 -2121,-2436 -4345,-2425 -2125,11 -3454,1260 -4138,2640 -771,1556 -557,4303 -557,6200 0,2245 -78,4633 12,6860z"/>
  <path class="fil0" d="M87088 26446l13692 13c29,-3042 -3154,-6241 -6843,-6238 -3844,4 -6915,3208 -6849,6225z"/>
  <path class="fil2" d="M35473 34792l1128 24c93,-3144 -146,-6478 30,-9583 390,-6903 8889,-6587 9111,-13 107,3147 -32,6398 11,9562l1123 30c126,-1251 67,-9284 -85,-10530 -676,-5545 -6543,-6359 -9453,-3675 -2335,2154 -1880,5557 -1880,8843 0,1754 -56,3600 15,5342z"/>
  <path class="fil2" d="M82339 19560l-1129 -82c15,3038 139,6488 -31,9471 -158,2797 -1538,5097 -4491,5132 -2909,35 -4513,-2161 -4628,-5027 -127,-3153 105,-6412 -30,-9559l-1089 -6c-68,1610 -88,9324 78,10626 865,6760 10235,6807 11200,-37 417,-2962 29,-7346 120,-10518z"/>
  <polygon class="fil2" points="105639,34771 106790,34798 106786,10903 105659,10877 "/>
  <polygon class="fil2" points="29469,34816 30602,34804 30607,19528 29483,19477 "/>
  <path class="fil2" d="M29622 14004c-1075,609 -264,2056 849,1572 976,-424 308,-2228 -849,-1572z"/>
  <polygon class="fil4" points="1428,1243 2213,1243 2213,6891 1428,6891 "/>
  <polygon id="1" class="fil5 str0" points="1428,1243 2213,1243 2213,6891 1428,6891 "/>
  <path class="fil4" d="M8077 5052c0,-347 -123,-638 -366,-873 -244,-235 -546,-353 -907,-353 -361,0 -662,118 -906,353 -244,235 -367,526 -367,873 0,348 123,639 367,874 244,235 545,353 906,353 361,0 663,-118 907,-353 243,-235 366,-526 366,-874zm635 0l0 1839 -635 0 0 -466c-361,310 -784,466 -1272,466 -534,0 -986,-178 -1355,-534 -369,-355 -554,-790 -554,-1305 0,-515 185,-950 554,-1305 369,-355 820,-533 1354,-533 535,0 986,178 1354,533 369,355 554,790 554,1305z"/>
  <path id="1" class="fil5 str0" d="M8077 5052c0,-347 -123,-638 -366,-873 -244,-235 -546,-353 -907,-353 -361,0 -662,118 -906,353 -244,235 -367,526 -367,873 0,348 123,639 367,874 244,235 545,353 906,353 361,0 663,-118 907,-353 243,-235 366,-526 366,-874zm635 0l0 1839 -635 0 0 -466c-361,310 -784,466 -1272,466 -534,0 -986,-178 -1355,-534 -369,-355 -554,-790 -554,-1305 0,-515 185,-950 554,-1305 369,-355 820,-533 1354,-533 535,0 986,178 1354,533 369,355 554,790 554,1305z"/>
  <path class="fil4 str0" d="M49274 3334l784 0 0 3665 -784 0 0 -3665zm168 -1746l787 0 -268 1198 -590 0 71 -1198z"/>
  <path class="fil4 str0" d="M66338 5044c0,-349 -118,-641 -353,-877 -235,-236 -525,-355 -873,-355 -347,0 -638,119 -873,355 -235,236 -353,528 -353,877 0,350 118,642 353,878 235,236 526,354 873,354 348,0 638,-118 873,-354 235,-236 353,-528 353,-878zm-177 -3790l788 0 0 3788c0,518 -178,956 -533,1313 -354,357 -789,536 -1304,536 -514,0 -949,-179 -1304,-536 -355,-357 -533,-793 -533,-1311 0,-517 178,-954 533,-1311 680,-683 1634,-712 2353,-70l0 -2409z"/>
  <path class="fil4" d="M73264 4701c24,155 24,363 0,626l-3110 0c204,593 618,907 1244,941 535,29 950,-180 1243,-628l623 0c-154,413 -393,728 -718,945 -327,217 -709,319 -1148,307 -522,-16 -963,-203 -1324,-560 -360,-357 -541,-795 -541,-1317 0,-526 181,-969 541,-1330 361,-361 802,-543 1324,-548 476,-4 888,139 1235,426 346,288 556,667 631,1138zm-3110 2l2487 0c-82,-293 -235,-523 -457,-690 -222,-168 -484,-251 -786,-251 -303,0 -565,83 -787,251 -221,167 -373,397 -457,690z"/>
  <path id="1" class="fil5 str0" d="M73264 4701c24,155 24,363 0,626l-3110 0c204,593 618,907 1244,941 535,29 950,-180 1243,-628l623 0c-154,413 -393,728 -718,945 -327,217 -709,319 -1148,307 -522,-16 -963,-203 -1324,-560 -360,-357 -541,-795 -541,-1317 0,-526 181,-969 541,-1330 361,-361 802,-543 1324,-548 476,-4 888,139 1235,426 346,288 556,667 631,1138zm-3110 2l2487 0c-82,-293 -235,-523 -457,-690 -222,-168 -484,-251 -786,-251 -303,0 -565,83 -787,251 -221,167 -373,397 -457,690z"/>
  <path class="fil4" d="M55941 5052c0,-347 -122,-638 -366,-873 -244,-235 -546,-353 -907,-353 -361,0 -662,118 -906,353 -244,235 -367,526 -367,873 0,348 123,639 367,874 244,235 545,353 906,353 361,0 663,-118 907,-353 244,-235 366,-526 366,-874zm635 0l0 1839 -635 0 0 -466c-361,310 -784,466 -1272,466 -534,0 -986,-178 -1355,-534 -369,-355 -553,-790 -553,-1305 0,-515 184,-950 553,-1305 369,-355 820,-533 1354,-533 535,0 986,178 1354,533 369,355 554,790 554,1305z"/>
  <path id="1" class="fil5 str0" d="M55941 5052c0,-347 -122,-638 -366,-873 -244,-235 -546,-353 -907,-353 -361,0 -662,118 -906,353 -244,235 -367,526 -367,873 0,348 123,639 367,874 244,235 545,353 906,353 361,0 663,-118 907,-353 244,-235 366,-526 366,-874zm635 0l0 1839 -635 0 0 -466c-361,310 -784,466 -1272,466 -534,0 -986,-178 -1355,-534 -369,-355 -553,-790 -553,-1305 0,-515 184,-950 553,-1305 369,-355 820,-533 1354,-533 535,0 986,178 1354,533 369,355 554,790 554,1305z"/>
  <path class="fil4 str0" d="M16107 5078c0,-349 118,-641 352,-877 235,-236 526,-355 873,-355 348,0 638,119 873,355 235,236 353,528 353,877 0,350 -118,642 -353,878 -235,236 -525,355 -873,355 -347,0 -638,-119 -873,-355 -234,-236 -352,-528 -352,-878zm177 -3790l-789 0 0 3788c0,519 178,956 533,1313 355,357 790,536 1304,536 515,0 949,-179 1304,-536 355,-357 533,-793 533,-1311 0,-517 -178,-954 -533,-1310 -679,-684 -1633,-713 -2352,-70l0 -2410z"/>
  <path class="fil4" d="M42345 4701c24,155 24,363 0,626l-3109 0c203,593 618,907 1243,941 535,29 950,-180 1244,-628l622 0c-153,413 -393,728 -718,945 -326,217 -708,319 -1148,307 -522,-16 -963,-203 -1324,-560 -360,-357 -541,-795 -541,-1317 0,-526 181,-969 541,-1330 361,-361 802,-543 1324,-548 477,-4 888,139 1235,426 346,288 556,667 631,1138zm-3109 2l2487 0c-83,-293 -235,-523 -457,-690 -222,-168 -484,-251 -787,-251 -302,0 -564,83 -786,251 -221,167 -374,397 -457,690z"/>
  <path id="1" class="fil5 str0" d="M42345 4701c24,155 24,363 0,626l-3109 0c203,593 618,907 1243,941 535,29 950,-180 1244,-628l622 0c-153,413 -393,728 -718,945 -326,217 -708,319 -1148,307 -522,-16 -963,-203 -1324,-560 -360,-357 -541,-795 -541,-1317 0,-526 181,-969 541,-1330 361,-361 802,-543 1324,-548 477,-4 888,139 1235,426 346,288 556,667 631,1138zm-3109 2l2487 0c-83,-293 -235,-523 -457,-690 -222,-168 -484,-251 -787,-251 -302,0 -564,83 -786,251 -221,167 -374,397 -457,690z"/>
  <path class="fil4" d="M24954 5052c0,-347 -122,-638 -366,-873 -244,-235 -546,-353 -907,-353 -361,0 -662,118 -906,353 -244,235 -367,526 -367,873 0,348 123,639 367,874 244,235 545,353 906,353 361,0 663,-118 907,-353 244,-235 366,-526 366,-874zm635 0l0 1839 -635 0 0 -466c-361,310 -784,466 -1272,466 -534,0 -986,-178 -1355,-534 -369,-355 -553,-790 -553,-1305 0,-515 184,-950 553,-1305 369,-355 820,-533 1354,-533 535,0 986,178 1354,533 369,355 554,790 554,1305z"/>
  <path id="1" class="fil5 str0" d="M24954 5052c0,-347 -122,-638 -366,-873 -244,-235 -546,-353 -907,-353 -361,0 -662,118 -906,353 -244,235 -367,526 -367,873 0,348 123,639 367,874 244,235 545,353 906,353 361,0 663,-118 907,-353 244,-235 366,-526 366,-874zm635 0l0 1839 -635 0 0 -466c-361,310 -784,466 -1272,466 -534,0 -986,-178 -1355,-534 -369,-355 -553,-790 -553,-1305 0,-515 184,-950 553,-1305 369,-355 820,-533 1354,-533 535,0 986,178 1354,533 369,355 554,790 554,1305z"/>
  <path class="fil4 str0" d="M33120 5078c0,-349 118,-641 353,-877 235,-236 526,-355 873,-355 348,0 638,119 873,355 235,236 353,528 353,877 0,350 -118,642 -353,878 -235,236 -525,355 -873,355 -347,0 -638,-119 -873,-355 -235,-236 -353,-528 -353,-878zm177 -3790l-788 0 0 3788c0,519 178,956 533,1313 355,357 789,536 1304,536 515,0 949,-179 1304,-536 355,-357 533,-793 533,-1311 0,-517 -178,-954 -533,-1310 -679,-684 -1633,-713 -2353,-70l0 -2410z"/>
  <path class="fil6 str0" d="M28303 4538l31 2406 875 0 0 -2296c0,-387 323,-596 718,-594l0 -827c-892,24 -1635,434 -1624,1311z"/>
  <path class="fil6 str0" d="M45030 4538l31 2406 874 0 0 -2296c0,-387 324,-596 719,-594l0 -827c-892,24 -1636,434 -1624,1311z"/>
 </g>
</svg>
